<?xml version="1.0" encoding="utf-8"?>
<!-- Generator: Adobe Illustrator 19.0.0, SVG Export Plug-In . SVG Version: 6.00 Build 0)  -->
<svg version="1.1" xmlns="http://www.w3.org/2000/svg" xmlns:xlink="http://www.w3.org/1999/xlink" x="0px" y="0px"
	 viewBox="0 0 960 560" style="enable-background:new 0 0 960 560;" xml:space="preserve">
<style type="text/css">
	.st0{fill:#FFFFFF;}
</style>
<g id="Layer_2">
</g>
<g id="circle_1_">
	<path id="XMLID_31_" class="st0" d="M458.4,10.3c-147.5,0-267.1,119.6-267.1,267.1s119.6,267.1,267.1,267.1
		s267.1-119.6,267.1-267.1S605.9,10.3,458.4,10.3z M459,518.1c-133.3,0-241.3-108-241.3-241.3S325.7,35.4,459,35.4
		s241.3,108,241.3,241.3S592.3,518.1,459,518.1z"/>
</g>
<g id="coctail">
	<path id="XMLID_17_" class="st0" d="M812.4,103.5"/>
	<path id="XMLID_16_" class="st0" d="M475,455.1c-2.5-1.7-7.5-4.6-14.1-4.8c-7.5-0.3-13.1,3.1-15.7,4.8c0.7-2.7,1.3-5.4,1.9-8.1
		c8.5-37.8,13.6-85.5,8.2-143.5c0.3,0.4,1.7,1.9,3.8,1.9s3.5-1.6,3.8-1.9c-2.6,45.8-0.2,94,10.1,142.8
		C473.7,449.3,474.3,452.2,475,455.1z"/>
	
		<rect id="XMLID_15_" x="488.7" y="108.6" transform="matrix(-0.9708 -0.2399 0.2399 -0.9708 924.1104 459.2847)" class="st0" width="2.5" height="129.7"/>
	
		<rect id="XMLID_14_" x="522.2" y="102.4" transform="matrix(0.6442 -0.7649 0.7649 0.6442 89.1491 445.5884)" class="st0" width="2.5" height="49.3"/>
	<path id="XMLID_13_" class="st0" d="M509.5,464.2c-0.3,1.4-8.3,0.1-52.5-4.1c-42.5-4.1-50.4-4.4-50.4-5.8c0-2.5,25-7.3,52.4-4.7
		C486.4,452.2,510.1,461.7,509.5,464.2z"/>
	<path id="XMLID_9_" class="st0" d="M458.1,169.1c-28.8,0.1-54.5,2.5-76.5,5.8c4.7,25.6,16.4,66.9,48.3,105.3
		c9.7,11.8,19.8,21.4,29.3,29.2c9.2-8.7,18.8-19,28.1-31.1c29-37.6,42.7-75.9,49.5-103.4C514.3,171.5,487.8,169,458.1,169.1z
		 M457.3,190.6c-28.3,0-51.2-5-66.2-9.4c-0.3-0.4-0.6-0.8-0.9-1.2c19.3,2.8,42.4,5,68.6,5c26.5,0,49.8-2.2,69.2-5
		C512.5,184.7,487.9,190.6,457.3,190.6z M497.2,252.2c-9,14.9-18.9,26.1-27,34.1l-1.2,2.1c0-0.3,0-0.6,0.1-0.9
		c0.4-0.4,0.8-0.7,1.2-1.1l45-75.9c0.1,0.1,0.2,0.1,0.4,0.2C512.3,221.8,506.8,236.5,497.2,252.2z"/>
	
		<rect id="XMLID_8_" x="729.4" y="-19" transform="matrix(-0.5417 -0.8405 0.8405 -0.5417 1029.7831 798.4791)" class="st0" width="6.3" height="275"/>
	
		<rect id="XMLID_7_" x="182.5" y="-27.3" transform="matrix(-0.6037 0.7972 -0.7972 -0.6037 385.4676 28.6672)" class="st0" width="6.3" height="275"/>
	
		<rect id="XMLID_4_" x="741.3" y="332.3" transform="matrix(0.4477 -0.8942 0.8942 0.4477 -8.9459 925.143)" class="st0" width="6.3" height="275"/>
	
		<rect id="XMLID_3_" x="188.2" y="332.3" transform="matrix(-0.5417 -0.8405 0.8405 -0.5417 -99.857 885.1858)" class="st0" width="6.3" height="275"/>
</g>
</svg>
